<?xml version="1.0" standalone="no"?>
<!DOCTYPE svg PUBLIC "-//W3C//DTD SVG 20010904//EN"
 "http://www.w3.org/TR/2001/REC-SVG-20010904/DTD/svg10.dtd">
<svg version="1.0" xmlns="http://www.w3.org/2000/svg"
 width="512.000000pt" height="512.000000pt" viewBox="0 0 512.000000 512.000000"
 preserveAspectRatio="xMidYMid meet">

<g transform="translate(0.000000,512.000000) scale(0.100000,-0.100000)"
fill="#F7A603" stroke="none">
<path d="M2505 4775 l-25 -24 0 -388 0 -388 -57 -34 c-177 -106 -424 -330
-562 -511 -139 -180 -239 -378 -286 -564 -63 -247 -98 -1039 -60 -1360 66
-568 294 -939 671 -1096 278 -115 516 -111 780 14 371 176 589 549 644 1106
21 212 11 720 -21 1054 -37 390 -150 645 -423 957 -134 152 -350 337 -478 408
l-48 26 0 377 c0 255 -4 385 -11 401 -22 49 -86 61 -124 22z m161 -1001 c108
-77 172 -131 287 -244 119 -114 288 -322 274 -336 -8 -8 -168 43 -276 88 -206
85 -376 194 -570 365 l-44 39 98 72 c64 47 108 72 125 72 17 0 58 -22 106 -56z
m-363 -269 c247 -228 606 -412 942 -484 76 -16 81 -19 99 -55 29 -59 64 -199
76 -303 6 -53 8 -98 5 -101 -7 -7 -183 24 -298 53 -353 90 -772 327 -1095 619
l-72 66 56 67 c54 65 195 213 202 213 2 0 40 -34 85 -75z m-103 -611 c132 -93
226 -152 338 -211 56 -30 102 -58 102 -61 -1 -12 -131 -105 -237 -168 -206
-124 -432 -201 -695 -238 l-38 -5 0 53 c0 87 39 472 54 539 25 109 101 298
138 344 7 9 42 -15 131 -90 67 -57 160 -130 207 -163z m715 -380 c125 -45 305
-89 430 -105 69 -10 96 -17 99 -29 2 -8 7 -64 11 -125 l6 -110 -119 -68 c-415
-235 -898 -386 -1407 -441 -221 -23 -264 -26 -269 -17 -7 10 -10 420 -4 426 2
2 53 11 113 20 352 51 679 196 969 429 38 31 70 56 70 56 1 0 46 -16 101 -36z
m555 -621 c-1 -227 -52 -653 -79 -653 -13 0 -165 90 -215 128 -86 65 -164 141
-231 225 -36 45 -65 84 -65 88 0 3 55 28 123 55 116 46 420 193 441 214 20 20
26 8 26 -57z m-687 -350 c69 -93 197 -224 283 -293 56 -44 231 -150 248 -150
6 0 17 -4 25 -9 24 -15 -84 -221 -169 -320 -25 -29 -41 -26 -165 35 -224 109
-561 370 -823 637 l-54 54 94 17 c116 21 322 69 408 95 36 11 70 20 76 20 6 1
41 -38 77 -86z m-654 -266 c288 -282 532 -471 768 -595 57 -29 103 -55 103
-57 0 -2 -19 -14 -42 -28 -121 -69 -329 -124 -432 -112 -109 12 -244 53 -338
102 -199 105 -348 295 -433 552 -28 86 -76 302 -68 311 4 4 126 15 207 18 38
2 45 -4 235 -191z"/>
</g>
</svg>
