<?xml version="1.0" standalone="no"?>
<!DOCTYPE svg PUBLIC "-//W3C//DTD SVG 20010904//EN"
 "http://www.w3.org/TR/2001/REC-SVG-20010904/DTD/svg10.dtd">
<svg version="1.0" xmlns="http://www.w3.org/2000/svg"
 width="512.000000pt" height="512.000000pt" viewBox="0 0 512.000000 512.000000"
 preserveAspectRatio="xMidYMid meet">

<g transform="translate(0.000000,512.000000) scale(0.100000,-0.100000)"
fill="#F7A603" stroke="none">
<path d="M452 5097 c-22 -23 -22 -29 -22 -316 0 -280 -1 -292 -19 -286 -56 18
-168 36 -259 41 -98 7 -104 6 -127 -16 l-25 -23 0 -227 c0 -274 -5 -264 130
-273 92 -7 148 -22 241 -63 l59 -27 0 -249 c0 -234 -1 -250 -17 -243 -54 20
-152 36 -254 42 -167 8 -159 22 -159 -264 l0 -224 25 -24 c20 -21 34 -25 83
-25 70 0 185 -28 265 -65 l57 -26 0 -248 0 -248 -77 19 c-43 11 -130 22 -194
25 -168 8 -159 23 -159 -261 0 -276 -5 -265 126 -276 106 -9 149 -20 238 -60
l66 -30 0 -245 c0 -189 -3 -245 -12 -245 -7 0 -37 7 -67 15 -30 7 -104 19
-166 25 -120 12 -156 6 -174 -29 -7 -12 -11 -104 -11 -240 0 -265 -4 -254 116
-266 98 -9 166 -27 249 -64 l65 -30 0 -314 0 -314 23 -21 c22 -21 31 -22 249
-22 l227 0 20 26 c20 25 21 39 21 290 l0 263 58 6 c93 11 201 35 269 59 l63
24 0 -312 0 -313 23 -21 c22 -21 31 -22 249 -22 216 0 226 1 244 21 18 20 19
45 24 375 l5 353 85 -35 c47 -20 133 -53 192 -73 l108 -36 0 -281 c0 -280 0
-281 23 -302 22 -21 31 -22 249 -22 l227 0 20 26 c20 26 21 39 21 303 l0 276
108 36 c59 20 145 52 192 72 l85 36 3 -351 c2 -345 3 -352 24 -375 21 -23 25
-23 249 -23 l228 0 20 26 c20 26 21 38 21 334 l0 308 63 -24 c68 -24 176 -48
270 -59 l57 -6 0 -268 c0 -267 0 -268 23 -289 22 -21 31 -22 249 -22 l227 0
20 26 c20 26 21 38 21 336 l0 309 68 30 c85 39 148 55 246 64 120 12 116 1
116 268 0 243 -3 259 -57 270 -38 8 -225 -10 -294 -28 -31 -8 -62 -15 -68 -15
-8 0 -11 73 -11 244 l0 245 56 25 c95 44 145 57 243 65 137 12 131 0 131 277
0 285 10 269 -164 261 -68 -3 -153 -14 -193 -25 l-73 -18 0 246 0 247 68 31
c83 38 179 62 255 62 48 0 62 4 82 25 l25 24 0 224 c0 286 8 272 -159 264 -64
-3 -151 -15 -193 -25 l-78 -19 0 247 0 247 59 27 c94 42 149 56 244 63 131 9
127 1 127 278 l0 222 -25 23 c-23 22 -29 23 -127 17 -90 -6 -201 -24 -259 -42
-18 -6 -19 6 -19 288 l0 294 -23 21 c-22 21 -31 22 -248 22 -223 0 -226 0
-247 -23 -22 -23 -22 -27 -22 -381 l0 -359 -52 7 c-29 4 -91 23 -138 42 -47
19 -111 45 -142 57 l-58 22 0 296 0 296 -23 21 c-22 21 -31 22 -248 22 -223 0
-226 0 -247 -23 -21 -23 -22 -30 -22 -295 l0 -271 -37 -6 c-68 -11 -207 -53
-278 -83 l-70 -30 -3 331 c-2 324 -3 332 -24 354 -21 23 -25 23 -248 23 -223
0 -227 0 -248 -23 -21 -22 -22 -30 -24 -354 l-3 -331 -70 30 c-71 30 -210 72
-277 83 l-38 6 0 273 c0 272 0 273 -23 294 -22 21 -31 22 -248 22 -223 0 -226
0 -247 -23 -22 -23 -22 -29 -22 -318 l0 -294 -58 -22 c-31 -12 -95 -38 -142
-57 -47 -19 -109 -38 -137 -42 l-53 -7 0 360 0 360 -23 21 c-22 21 -31 22
-248 22 -223 0 -226 0 -247 -23z m378 -428 l0 -312 -52 7 c-28 4 -87 21 -130
37 l-78 30 0 275 0 274 130 0 130 0 0 -311z m930 -448 l0 -758 -112 -6 c-62
-3 -121 -8 -130 -12 -17 -7 -18 34 -18 764 l0 771 130 0 130 0 0 -759z m930
450 l0 -309 -65 -4 c-36 -2 -94 -2 -130 0 l-65 4 0 309 0 309 130 0 130 0 0
-309z m930 -462 c0 -730 -1 -771 -17 -764 -10 4 -69 9 -130 12 l-113 6 0 758
0 759 130 0 130 0 0 -771z m930 497 l0 -275 -78 -30 c-43 -16 -102 -33 -130
-37 l-52 -7 0 312 0 311 130 0 130 0 0 -274z m-4212 -337 c40 -10 109 -35 155
-55 304 -134 514 -135 800 -6 l67 31 0 -143 0 -144 -87 -32 c-161 -58 -321
-78 -483 -61 -125 14 -210 37 -355 98 -112 47 -162 63 -257 78 l-38 6 0 130 0
130 63 -7 c34 -4 95 -15 135 -25z m4642 -99 l0 -129 -37 -6 c-96 -15 -146 -31
-258 -78 -149 -62 -231 -85 -363 -98 -164 -17 -333 6 -494 67 l-68 26 0 143 0
144 68 -31 c279 -127 505 -127 782 0 87 40 150 59 245 76 138 25 125 36 125
-114z m-2965 93 c33 -8 112 -37 176 -64 156 -65 229 -81 369 -81 140 0 213 16
369 81 102 43 155 61 264 85 l27 6 0 -133 0 -133 -52 -14 c-29 -7 -102 -34
-163 -60 -133 -57 -209 -77 -344 -90 -194 -18 -359 11 -571 100 -63 27 -132
52 -152 55 l-38 7 0 134 0 134 28 -6 c15 -3 54 -13 87 -21z m21 -433 c50 -21
122 -48 160 -60 38 -12 75 -23 82 -25 9 -3 12 -64 12 -259 l0 -254 -79 33
c-82 35 -197 69 -268 80 l-43 7 0 265 0 264 23 -6 c12 -4 63 -24 113 -45z
m1184 -213 l0 -263 -89 -18 c-49 -10 -136 -37 -195 -60 l-106 -43 0 254 c0
194 3 254 13 257 63 19 208 71 277 100 47 20 88 36 93 36 4 0 7 -118 7 -263z
m-1862 -63 l-3 -247 -95 -39 c-134 -56 -193 -76 -245 -83 l-45 -7 0 271 0 271
45 0 c59 0 182 25 265 54 36 13 68 24 73 25 4 0 6 -110 5 -245z m2493 215 c81
-26 201 -49 254 -49 l45 0 0 -271 0 -270 -47 7 c-55 8 -108 26 -243 82 l-95
39 -3 248 c-2 233 -1 247 15 240 10 -4 43 -16 74 -26z m-3063 -49 l42 0 0
-810 c0 -670 -2 -810 -13 -810 -30 0 -168 40 -206 60 l-41 20 0 788 0 788 88
-18 c48 -10 106 -18 130 -18z m3762 -751 l0 -790 -57 -26 c-47 -20 -164 -52
-195 -53 -5 0 -8 365 -8 810 l0 810 48 1 c36 0 194 29 210 38 1 0 2 -355 2
-790z m-1860 -54 l0 -803 -22 -6 c-30 -8 -186 -8 -215 0 l-23 6 0 803 0 803
130 0 130 0 0 -803z m-2405 286 c50 -10 102 -24 118 -30 l27 -11 0 -139 0
-139 -62 26 c-35 14 -100 32 -145 41 l-83 15 0 128 0 128 28 0 c15 0 67 -9
117 -19z m1636 4 c97 -16 170 -40 287 -92 l82 -36 0 -135 0 -134 -27 7 c-16 3
-66 22 -113 42 -221 93 -239 97 -415 98 -181 0 -209 -6 -382 -81 -114 -50
-222 -80 -319 -90 l-64 -7 0 130 0 129 77 12 c42 7 115 28 162 48 165 68 244
95 319 108 103 19 290 19 393 1z m1662 0 c85 -15 170 -43 328 -109 47 -20 120
-41 162 -48 l77 -12 0 -129 0 -130 -64 7 c-98 10 -205 40 -323 91 -167 73
-241 88 -403 83 -149 -6 -185 -15 -395 -102 -60 -25 -116 -46 -123 -46 -10 0
-12 31 -10 135 l3 136 105 45 c95 41 213 76 295 87 75 10 270 6 348 -8z m1397
-113 l0 -128 -82 -15 c-46 -9 -111 -28 -146 -41 l-63 -26 3 141 3 140 40 14
c44 15 175 41 218 42 l27 1 0 -128z m-3220 -1076 l0 -804 -72 -6 c-40 -4 -99
-9 -130 -12 l-58 -6 0 800 0 801 63 14 c34 9 92 16 130 16 l67 1 0 -804z
m1791 788 l69 -16 0 -800 0 -800 -65 6 c-36 3 -94 9 -130 12 l-65 6 0 804 0
804 61 0 c33 0 91 -7 130 -16z m-1511 -54 c65 -28 148 -58 184 -67 l66 -18 0
-258 0 -257 -37 19 c-64 32 -204 78 -280 91 l-73 13 0 264 c0 184 3 263 11
263 6 0 64 -23 129 -50z m1180 -213 l0 -264 -72 -13 c-77 -13 -217 -59 -280
-91 l-38 -19 0 258 0 258 68 17 c37 10 119 40 182 67 63 27 121 50 128 50 9 0
12 -59 12 -263z m-1862 -62 l-3 -246 -85 -35 c-120 -51 -208 -81 -257 -88
l-43 -6 0 268 0 269 72 7 c75 7 194 34 263 60 22 8 43 15 48 15 4 1 6 -109 5
-244z m2512 211 c46 -15 128 -32 182 -39 l98 -11 0 -269 0 -269 -42 7 c-52 8
-144 40 -258 88 l-85 36 -3 247 c-2 202 0 245 11 241 7 -3 51 -17 97 -31z
m-3525 -576 c41 -11 122 -39 178 -64 172 -74 202 -81 377 -81 172 0 222 11
374 80 42 19 79 35 82 35 2 0 3 -64 2 -142 l-3 -143 -59 -23 c-117 -47 -206
-64 -351 -69 -210 -8 -318 15 -566 120 -47 20 -120 42 -162 49 l-77 12 0 129
0 130 64 -7 c35 -3 99 -15 141 -26z m4635 -98 l0 -128 -77 -12 c-42 -7 -115
-28 -162 -48 -260 -108 -356 -129 -566 -121 -148 5 -260 28 -362 73 l-53 23 0
140 0 141 23 -9 c12 -5 60 -25 107 -44 109 -45 216 -67 330 -67 122 0 222 22
360 79 63 27 131 54 152 60 53 17 167 39 211 40 l37 1 0 -128z m-2976 98 c42
-11 123 -39 179 -64 172 -74 202 -81 377 -81 175 0 205 7 377 81 91 40 233 84
270 84 10 0 13 -28 13 -129 l0 -129 -65 -21 c-36 -12 -91 -33 -123 -47 -161
-73 -303 -104 -472 -104 -169 0 -311 31 -472 104 -32 14 -87 35 -123 47 l-65
21 0 129 c0 101 3 129 13 129 8 0 48 -9 91 -20z m51 -444 c55 -23 130 -51 168
-62 l67 -19 0 -254 c0 -237 -1 -253 -17 -248 -10 3 -56 22 -103 41 -47 19
-127 43 -177 53 l-93 18 0 264 0 263 28 -7 c15 -4 72 -26 127 -49z m1165 -208
l0 -263 -93 -18 c-50 -10 -130 -34 -177 -53 -47 -19 -93 -38 -102 -41 -17 -5
-18 11 -18 251 0 207 3 256 13 256 20 0 169 52 267 94 47 19 91 36 98 36 9 0
12 -59 12 -262z m-1860 -62 l0 -243 -122 -51 c-118 -48 -165 -63 -235 -76
l-33 -5 0 268 0 269 73 7 c73 7 247 48 276 65 40 24 41 20 41 -234z m2519 209
c46 -14 126 -30 178 -37 l93 -11 0 -268 0 -268 -37 6 c-46 6 -169 48 -275 93
l-78 33 0 244 c0 229 1 245 18 240 9 -4 55 -18 101 -32z m-3161 -33 l112 -16
0 -758 0 -758 -130 0 -130 0 0 781 c0 740 1 781 18 774 9 -3 68 -14 130 -23z
m3832 -752 l0 -780 -130 0 -130 0 0 758 0 759 94 12 c51 7 107 16 122 21 16 4
32 9 37 9 4 1 7 -350 7 -779z m-1860 -20 l0 -760 -130 0 -130 0 0 760 0 760
130 0 130 0 0 -760z m-859 260 c131 -12 222 -36 355 -92 l104 -43 0 -137 0
-137 -52 16 c-29 8 -92 33 -140 54 -134 61 -222 80 -368 81 -148 1 -201 -11
-370 -82 -116 -49 -234 -82 -337 -94 l-53 -7 0 130 0 130 38 6 c88 14 169 38
250 74 145 65 248 92 397 104 22 2 47 4 55 5 8 1 63 -3 121 -8z m1657 0 c136
-12 212 -32 362 -95 116 -49 167 -64 263 -80 l37 -6 0 -130 0 -130 -52 7
c-104 12 -222 45 -338 94 -169 71 -222 83 -370 82 -146 -1 -234 -20 -368 -81
-48 -21 -111 -46 -140 -54 l-52 -16 0 137 0 137 113 46 c153 64 247 85 427 97
8 1 61 -3 118 -8z m-3222 -11 c32 -5 83 -18 112 -26 l52 -17 0 -139 c0 -129
-1 -139 -17 -132 -74 30 -167 57 -215 62 l-58 6 0 128 0 129 33 0 c18 0 60 -5
93 -11z m4714 -118 l0 -128 -58 -6 c-49 -5 -146 -33 -214 -62 -17 -7 -18 3
-18 132 l0 140 58 17 c74 22 137 34 190 35 l42 1 0 -129z m-3222 -578 l2 -313
-130 0 -130 0 0 294 0 294 33 11 c44 15 144 29 187 28 l35 -2 3 -312z m1727
307 c39 -6 85 -15 103 -21 l32 -11 0 -294 0 -294 -130 0 -130 0 0 308 c0 170
3 312 7 315 9 9 35 8 118 -3z"/>
</g>
</svg>
