<?xml version="1.0" standalone="no"?>
<!DOCTYPE svg PUBLIC "-//W3C//DTD SVG 20010904//EN"
 "http://www.w3.org/TR/2001/REC-SVG-20010904/DTD/svg10.dtd">
<svg version="1.0" xmlns="http://www.w3.org/2000/svg"
 width="512.000000pt" height="512.000000pt" viewBox="0 0 512.000000 512.000000"
 preserveAspectRatio="xMidYMid meet">

<g transform="translate(0.000000,512.000000) scale(0.100000,-0.100000)"
fill="#F7A603" stroke="none">
<path d="M1670 5094 c-217 -64 -545 -169 -637 -205 -295 -115 -545 -347 -683
-634 -26 -56 -86 -248 -194 -631 -86 -303 -156 -558 -156 -567 0 -9 10 -28 22
-42 20 -23 74 -39 453 -136 237 -60 438 -112 447 -115 17 -5 18 -83 20 -1366
l3 -1360 24 -19 c23 -19 62 -19 1593 -19 l1569 0 24 25 25 24 0 1355 0 1355
38 10 c20 6 221 57 446 115 230 59 416 112 426 121 10 9 21 27 24 41 7 28
-280 1060 -322 1158 -121 282 -343 514 -618 647 -87 42 -420 154 -682 230
l-154 44 -41 -24 c-124 -70 -155 -85 -233 -112 -139 -47 -265 -69 -434 -76
-304 -12 -569 46 -771 167 -36 22 -74 40 -85 39 -10 0 -57 -12 -104 -25z m144
-173 c391 -224 1087 -227 1483 -5 l65 36 77 -22 c199 -58 552 -175 631 -209
262 -113 499 -361 589 -616 30 -84 281 -978 276 -983 -5 -5 -727 -192 -742
-192 -10 0 -13 115 -13 540 l0 541 -25 24 c-15 16 -36 25 -55 25 -19 0 -40 -9
-55 -25 l-25 -24 0 -1926 0 -1925 -1460 0 -1460 0 0 1925 0 1926 -25 24 c-15
16 -36 25 -55 25 -19 0 -40 -9 -55 -25 l-25 -24 0 -541 c0 -425 -3 -540 -12
-540 -16 0 -738 187 -744 192 -7 7 267 962 297 1034 90 216 288 423 513 538
88 45 698 251 755 255 7 1 37 -12 65 -28z"/>
</g>
</svg>
