<?xml version="1.0" standalone="no"?>
<!DOCTYPE svg PUBLIC "-//W3C//DTD SVG 20010904//EN"
 "http://www.w3.org/TR/2001/REC-SVG-20010904/DTD/svg10.dtd">
<svg version="1.0" xmlns="http://www.w3.org/2000/svg"
 width="512.000000pt" height="512.000000pt" viewBox="0 0 512.000000 512.000000"
 preserveAspectRatio="xMidYMid meet">

<g transform="translate(0.000000,512.000000) scale(0.100000,-0.100000)"
fill="#5BC679" stroke="none">
<path d="M1750 4959 c-45 -16 -60 -17 -82 -8 -49 20 -100 12 -252 -42 -148
-52 -208 -87 -221 -129 -4 -12 -29 -26 -73 -41 -146 -48 -196 -80 -229 -143
-33 -63 -34 -87 -11 -281 30 -258 33 -758 5 -935 -37 -236 -85 -393 -176 -579
-50 -102 -51 -106 -51 -196 0 -98 12 -125 57 -125 39 0 56 35 64 128 6 73 12
97 42 153 82 149 148 371 184 614 26 176 25 675 -1 910 -26 225 -26 239 3 269
18 19 143 76 167 76 2 0 4 -535 4 -1190 l0 -1190 -247 0 c-277 0 -297 -4 -340
-69 -22 -32 -23 -43 -23 -215 0 -162 2 -184 20 -213 10 -18 31 -39 45 -49 l25
-16 0 -264 0 -263 -30 -22 c-53 -40 -60 -69 -60 -259 0 -190 7 -219 60 -259
l30 -22 0 -170 c0 -148 2 -175 19 -208 26 -50 81 -97 128 -110 44 -13 1731
-15 1749 -3 24 16 35 51 23 74 -18 35 -27 38 -123 38 -85 0 -88 1 -73 18 9 10
29 44 44 77 l28 60 3 1149 c2 746 -1 1168 -8 1204 -5 30 -33 105 -61 166 -269
583 -399 1169 -399 1796 0 204 -8 229 -80 267 -52 28 -87 28 -160 2z m104
-105 c14 -5 16 -30 16 -173 0 -627 125 -1199 389 -1786 l76 -170 3 -237 3
-238 -295 0 -296 0 2 1292 3 1291 35 13 c43 15 44 15 64 8z m-226 -1311 l2
-1293 -165 0 -165 0 0 1239 c0 1021 2 1241 13 1250 24 19 261 100 287 98 l25
-2 3 -1292z m710 -2120 l-3 -258 -777 -3 -778 -2 0 260 0 260 780 0 780 0 -2
-257z m-4 -928 c-1 -112 -16 -154 -76 -212 -66 -64 -53 -63 -770 -63 l-650 0
-29 29 -29 29 0 161 0 161 778 -2 777 -3 -1 -100z"/>
<path d="M3210 4957 c-56 -29 -80 -74 -80 -148 0 -51 -4 -63 -43 -116 -120
-162 -309 -253 -526 -253 -108 0 -197 18 -283 57 -67 30 -103 23 -114 -22 -13
-51 18 -76 150 -120 67 -23 104 -29 211 -32 229 -8 396 48 556 186 l51 44 -7
-104 c-35 -548 -152 -1018 -381 -1526 -36 -78 -69 -167 -75 -196 -6 -35 -8
-470 -7 -1203 l3 -1149 29 -63 c41 -89 125 -165 212 -192 64 -19 91 -20 718
-20 423 0 664 4 689 11 47 13 102 60 128 110 17 33 19 60 19 208 l0 170 30 22
c53 40 60 69 60 259 0 190 -7 219 -60 259 l-30 22 0 263 0 264 25 16 c14 10
35 31 45 49 18 29 20 51 20 212 0 161 -2 183 -20 212 -10 18 -31 39 -45 49
l-25 16 0 228 0 227 -51 104 c-93 190 -139 340 -176 579 -26 168 -25 669 2
900 24 205 23 255 -3 305 -38 75 -82 104 -234 154 -44 15 -69 29 -73 41 -13
42 -73 77 -221 129 -153 54 -203 62 -252 42 -22 -9 -38 -8 -86 9 -76 26 -103
25 -156 -3z m135 -117 l25 -10 0 -1290 0 -1290 -296 0 -295 0 3 238 3 237 76
170 c99 218 166 400 222 600 111 394 154 680 164 1100 4 165 10 253 17 258 11
8 38 4 81 -13z m321 -45 c70 -25 133 -50 141 -56 11 -9 13 -215 13 -1155 0
-1025 2 -1144 16 -1158 19 -20 54 -20 80 -2 19 14 19 39 22 1111 l2 1096 23
-7 c74 -23 127 -47 147 -69 29 -30 29 -52 4 -275 -26 -231 -26 -732 -1 -905
36 -246 97 -450 186 -623 l41 -79 0 -211 0 -212 -425 0 -425 0 0 1288 c0 709
3 1292 7 1295 13 13 43 6 169 -38z m674 -3375 l0 -260 -777 2 -778 3 -3 258
-2 257 780 0 780 0 0 -260z m0 -981 l0 -161 -29 -29 -29 -29 -650 0 c-717 0
-704 -1 -770 63 -56 53 -75 101 -80 199 -2 48 -2 94 1 103 6 13 94 15 782 15
l775 0 0 -161z"/>
</g>
</svg>
